<svg width="35" height="35" viewBox="0 0 35 35" fill="none" xmlns="http://www.w3.org/2000/svg">
<path d="M17.6523 19.9157L24.3397 13.2282C24.8887 12.6793 24.8887 11.7892 24.3397 11.2402C23.7907 10.6912 22.9006 10.6912 22.3517 11.2402L15.6642 17.9277L17.6523 19.9157Z" fill="#E5DFD2"/>
<path d="M12.5126 24.7161L9.7196 21.9231C9.71301 21.9168 9.70648 21.9104 9.69999 21.9039L6.06504 18.2689C5.51606 17.72 4.62599 17.72 4.07702 18.2689C3.52804 18.8179 3.52804 19.708 4.07702 20.257L7.71197 23.8919C9.01043 25.1904 10.945 25.4651 12.5126 24.7161Z" fill="#E5DFD2"/>
<path fill-rule="evenodd" clip-rule="evenodd" d="M31.3685 11.1699C31.9174 11.7189 31.9174 12.609 31.3685 13.1579L20.6345 23.8919C18.9876 25.5388 16.3174 25.5388 14.6705 23.8919L11.0355 20.2569C10.4865 19.7079 10.4865 18.8179 11.0355 18.2689C11.5845 17.7199 12.4746 17.7199 13.0235 18.2689L16.6585 21.9038C17.2075 22.4528 18.0975 22.4528 18.6465 21.9038L29.3804 11.1699C29.9294 10.6209 30.8195 10.6209 31.3685 11.1699Z" fill="#E5DFD2"/>
</svg>
