<svg width="83" height="90" viewBox="0 0 83 90" fill="none" xmlns="http://www.w3.org/2000/svg">
<g id="ic:baseline-ads-click">
<path id="Vector" d="M24.6225 61.4525C17.3105 61.1068 10.4127 57.9577 5.36189 52.6592C0.311079 47.3607 -2.5045 40.3202 -2.5 33C-2.5 17.2775 10.2775 4.5 26 4.5C41.295 4.5 53.74 16.5175 54.4525 31.6225L44.4775 28.63C43.7011 25.3372 42.0594 22.3115 39.7221 19.8657C37.3848 17.4198 34.4366 15.6426 31.1825 14.7177C27.9283 13.7927 24.4861 13.7537 21.2118 14.6046C17.9374 15.4554 14.9497 17.1653 12.5575 19.5575C10.1653 21.9497 8.45543 24.9374 7.60456 28.2118C6.75369 31.4861 6.79273 34.9283 7.71765 38.1825C8.64258 41.4366 10.4198 44.3848 12.8657 46.7221C15.3115 49.0594 18.3372 50.7011 21.63 51.4775L24.6225 61.4525ZM73.5 33C73.5 34.425 73.4525 35.85 73.31 37.275L63.9525 34.4725C64 33.9975 64 33.475 64 33C64 12.005 46.995 -5 26 -5C5.005 -5 -12 12.005 -12 33C-12 53.995 5.005 71 26 71C26.475 71 26.9975 71 27.4725 70.9525L30.275 80.31C28.85 80.4525 27.425 80.5 26 80.5C-0.219999 80.5 -21.5 59.22 -21.5 33C-21.5 6.78 -0.219999 -14.5 26 -14.5C52.22 -14.5 73.5 6.78 73.5 33ZM55.5925 53.235L73.5 47.25L26 33L40.25 80.5L46.235 62.5925L66.5175 82.875L75.9225 73.47L55.5925 53.235Z" fill="white"/>
</g>
</svg>
